<svg xmlns="http://www.w3.org/2000/svg" width="612" height="612" style="enable-background:new 0 0 612 612">
  <g>
    <g>
      <path d="M343 612h-74c-15 0-27-11-28-26l-8-45c-14-5-28-10-41-17l-38 27c-5 4-11 6-18 6-8 0-15-3-20-8l-53-53a29 29 0 01-1-38l26-38c-7-13-12-27-17-41l-46-8c-14-1-25-13-25-28v-74c0-15 11-27 26-28l45-8c5-14 10-28 17-41l-27-38c-9-11-8-28 2-38l53-53c10-10 27-10 38-1l38 26c13-7 27-12 41-17l8-46c1-14 13-25 28-25h74c15 0 27 11 28 26l8 45c14 5 28 10 41 17l38-27c5-4 11-6 18-6 8 0 15 3 20 8l53 53c10 10 11 27 1 38l-26 38c7 13 12 27 17 41l46 8c14 1 25 13 25 28v74c0 15-11 27-26 28l-45 8c-5 14-10 28-17 41l27 38c9 11 8 28-2 38l-53 53a29 29 0 01-38 1l-38-26c-13 7-27 12-41 17l-8 46c-1 14-13 25-28 25zM191 502l5 1c15 9 32 15 49 20 3 1 6 4 7 8l9 53c0 4 4 8 8 8h74c4 0 8-4 8-8l9-53c1-4 4-7 7-8 17-5 34-11 49-20 4-2 8-2 11 1l43 30c4 4 9 3 12 0l52-52c3-3 4-8 1-11l-31-44c-3-3-3-7-1-11 9-15 15-32 20-49 1-3 4-6 8-7l53-9c4 0 8-4 8-8v-74c0-4-4-8-8-8l-53-9c-4-1-7-4-8-7-5-17-11-34-20-49-2-4-2-8 1-11l30-43c4-4 3-9 0-12l-52-52c-3-3-8-3-11-1l-44 31c-3 3-7 3-11 1-15-9-32-15-49-20-3-1-6-4-7-8l-9-53c0-5-4-8-8-8h-74c-4 0-8 3-8 8l-9 53c-1 4-4 7-7 8-17 5-34 11-49 20-4 2-8 2-11-1l-43-30c-5-4-9-3-12 0l-52 52c-3 3-4 8-1 11l31 44c3 3 3 7 1 11-9 15-15 32-20 49-1 3-4 6-8 7l-53 9c-5 0-8 4-8 8v74c0 4 3 8 8 8l53 9c4 1 7 4 8 7 5 17 11 34 20 49 2 4 2 8-1 11l-30 43c-4 4-3 9 0 12l52 52c3 3 8 3 11 1l44-31c2-2 4-2 6-2zm115-75a121 121 0 110-242 121 121 0 010 242zm0-222a101 101 0 100 202 101 101 0 000-202z"/>
    </g>
  </g>
</svg>
